<svg xmlns="http://www.w3.org/2000/svg" version="1.1" xmlns:xlink="http://www.w3.org/1999/xlink" width="1000" height="1000"><g clip-path="url(#SvgjsClipPath1158)"><rect width="1000" height="1000" fill="#ffffff"></rect><g transform="matrix(1.8251919564520556,0,0,1.8251919564520556,50.02077981042419,50)"><svg xmlns="http://www.w3.org/2000/svg" version="1.1" xmlns:xlink="http://www.w3.org/1999/xlink" width="493.07605" height="493.09882"><svg version="1.0" x="0" y="0" width="493.07605" height="493.09882" viewBox="0 0 54.896222 54.898757" preserveAspectRatio="xMidYMid" color-interpolation-filters="sRGB" id="svg47" xmlns="http://www.w3.org/2000/svg" xmlns:svg="http://www.w3.org/2000/svg">
  <defs id="defs47"><clipPath id="SvgjsClipPath1158"><rect width="1000" height="1000" x="0" y="0" rx="200" ry="200"></rect></clipPath></defs>
  <g id="g130" transform="translate(-42.167639,-97.306691)">
    <path style="display:inline;fill:#1f3832;fill-opacity:1;stroke-width:1.1308" d="m 69.442294,152.20476 c -1.007166,-0.009 -2.243066,-0.0618 -2.746443,-0.11791 -0.503378,-0.0561 -1.272171,-0.16399 -1.708432,-0.23966 -0.436261,-0.0757 -1.429906,-0.2994 -2.208103,-0.49717 -0.778196,-0.19778 -2.062027,-0.60059 -2.852959,-0.89514 -0.790931,-0.29455 -1.48458,-0.58207 -1.541443,-0.63893 -0.05687,-0.0569 2.446428,-2.01491 5.562867,-4.35123 3.764888,-2.82244 5.719209,-4.21568 5.82407,-4.15202 0.0868,0.0527 2.642006,1.95827 5.678235,4.23459 3.036228,2.27632 5.492745,4.18353 5.458927,4.23825 -0.03382,0.0547 -0.623476,0.31872 -1.31035,0.58668 -0.686874,0.26796 -1.743086,0.62342 -2.347139,0.78991 -0.604053,0.16649 -1.495065,0.39074 -1.980027,0.49832 -0.484962,0.10759 -1.582903,0.27763 -2.43987,0.37788 -0.856967,0.10024 -2.382166,0.17514 -3.389333,0.16643 z m -19.663166,-8.62869 c -0.09174,0.0716 -0.477398,-0.30369 -1.159293,-1.12804 -0.562,-0.6794 -1.395026,-1.7925 -1.85117,-2.47356 -0.456142,-0.68106 -1.248815,-2.07735 -1.761493,-3.10286 -0.802463,-1.60517 -0.907784,-1.88744 -0.757051,-2.02899 0.0963,-0.0905 5.803767,-4.38338 12.683259,-9.53988 6.879491,-5.15649 12.590537,-9.37544 12.691213,-9.37544 0.100675,0 5.811721,4.21895 12.691213,9.37544 6.879491,5.1565 12.581879,9.44436 12.67197,9.52859 0.136008,0.12715 0.08778,0.32651 -0.284187,1.17478 -0.246395,0.5619 -0.72756,1.51586 -1.069254,2.11991 -0.341693,0.60406 -0.940415,1.56855 -1.330492,2.14333 -0.390078,0.57477 -1.15176,1.57522 -1.692627,2.22321 l -0.983396,1.17816 -8.760652,-6.56932 c -6.560687,-4.91964 -8.942042,-6.64016 -9.482982,-6.85143 -0.548736,-0.21432 -0.97161,-0.28298 -1.759593,-0.28568 -0.835087,-0.003 -1.179976,0.0559 -1.769448,0.30138 -0.519526,0.21638 -3.230939,2.17806 -9.335363,6.75405 -4.731749,3.54701 -8.665042,6.49736 -8.740654,6.55635 z m -7.550629,-19.78868 c -0.03347,0 -0.06086,-0.0728 -0.06086,-0.16185 0,-0.089 0.05837,-0.76171 0.129716,-1.49488 0.07134,-0.73316 0.264205,-2.00742 0.428579,-2.83168 0.164375,-0.82426 0.546764,-2.25202 0.849752,-3.1728 0.302989,-0.92078 0.927724,-2.44294 1.388301,-3.38258 0.460578,-0.93964 1.179638,-2.23012 1.597912,-2.86773 0.418275,-0.63761 1.177096,-1.68097 1.68627,-2.31858 0.509175,-0.63762 1.501531,-1.72436 2.205239,-2.41499 0.703707,-0.69063 1.810136,-1.66246 2.458732,-2.15962 0.648597,-0.49716 1.695153,-1.21872 2.325683,-1.60348 0.630528,-0.38475 1.821935,-1.02315 2.647569,-1.418652 0.825634,-0.395503 2.225939,-0.957434 3.111788,-1.248734 0.885849,-0.291299 2.324514,-0.670687 3.197036,-0.843082 0.87252,-0.172396 2.155087,-0.369382 2.850148,-0.437744 0.69506,-0.06837 1.852444,-0.124297 2.571962,-0.124297 0.719519,0 1.908078,0.05837 2.641242,0.129715 0.733165,0.07134 2.01945,0.266176 2.858413,0.43296 0.838962,0.166784 2.277255,0.552941 3.196205,0.858128 0.918951,0.305186 2.374169,0.897355 3.233819,1.315926 0.859649,0.41858 2.024838,1.04763 2.589308,1.3979 0.564469,0.35026 1.525462,1.01255 2.135541,1.47174 0.610077,0.4592 1.588709,1.28415 2.174736,1.83322 0.586028,0.54907 1.47542,1.48688 1.976427,2.08402 0.501006,0.59713 1.141285,1.39753 1.422842,1.77866 0.281557,0.38113 0.777605,1.12133 1.102328,1.64489 0.324723,0.52356 0.894237,1.55582 1.265585,2.29391 0.371349,0.73808 0.868443,1.8484 1.104655,2.46738 0.236212,0.61898 0.59132,1.73395 0.78913,2.47771 0.19781,0.74376 0.439169,1.77069 0.536353,2.28206 0.09718,0.51137 0.243535,1.59717 0.325225,2.41289 0.08169,0.81572 0.118274,1.51337 0.0813,1.55035 -0.03698,0.037 -5.577452,-4.06708 -12.312172,-9.12012 -6.73472,-5.05305 -12.519515,-9.33516 -12.8551,-9.51582 -0.335585,-0.18066 -0.93719,-0.39483 -1.336899,-0.47594 -0.400095,-0.0812 -1.016012,-0.11347 -1.370327,-0.0718 -0.353971,0.0416 -0.956387,0.19268 -1.338702,0.33572 -0.531338,0.1988 -3.622837,2.45567 -13.121,9.57865 -6.834234,5.12522 -12.453268,9.31858 -12.486738,9.31858 z" id="path127"></path>
  </g>
</svg></svg></g></g></svg>